# xmcd
#
# Track frame offsets:
#	150
#	11716
#	24214
#	38860
#	51742
#	66073
#	81280
#	94620
#	108326
#	120829
#	132928
#	144106
#	157080
#	169284
#	180522
#
# Disc length: 2597 seconds
#
# Revision: 2
# Processed by: cddbd v1.5.2PL0 Copyright (c) Steve Scherf et al.
# Submitted via: EasyCDDAExtractor 10.0.3.1
#
DISCID=bf0a230f
DTITLE=Various Artist - Best Of Blues - Disc 1
DYEAR=2004
DGENRE=Blues
TTITLE0=John Lee Hooker - Walkin' The Boogie
TTITLE1=Big Bill Broonzy - I Feel So Good
TTITLE2=T-Bone Walker - I Got A Break, Baby
TTITLE3=Robert Johnson - Ramblin' On My Mind
TTITLE4=Lonnie Johnson - Winnie The Wailer
TTITLE5=Memphis Slim - Beer Drinking Woman
TTITLE6=Arthur 'Big Boy' Crudup - Rock Me Mama
TTITLE7=Sonny Boy Williamson - Good Morning, Schoolgirl
TTITLE8=Sonny Terry - Train Whistle Blues
TTITLE9=Jazz Gillum - Key To The Highway
TTITLE10=Blind Willie McTell - Statesboro' Blues
TTITLE11=Leadbelly - Good Morning Blues
TTITLE12=Champion Jack Dupree - Dupree Shake Dance
TTITLE13=Tampa Red - It Hurts Me Too
TTITLE14=Casey Bill Weldon - You Just As Well Let Her Go
EXTD=YEAR: 2004
EXTT0=
EXTT1=
EXTT2=
EXTT3=
EXTT4=
EXTT5=
EXTT6=
EXTT7=
EXTT8=
EXTT9=
EXTT10=
EXTT11=
EXTT12=
EXTT13=
EXTT14=
PLAYORDER=
